<svg xmlns="http://www.w3.org/2000/svg" viewBox="0 0 512 512" width="512" height="512" role="img" aria-label="Equity Wiser">
  <title>Equity Wiser</title>
  <rect width="512" height="512" fill="#F9F5EE"/>
  <g transform="translate(30, 363.31) scale(0.303559, -0.303559)">
    <path d="M465 171H475V0H27V8H91V707H27V715H468V544H458Q458 609 426.0 658.0Q394 707 338 707H228V357H284Q342 357 395 422V284Q367 318 342.0 333.5Q317 349 284 349H228V8H345Q401 8 433.0 57.0Q465 106 465 171Z" fill="#111111"/>
    <g transform="translate(583, 0)"><path d="M843 658 637 -10H619L462 428L319 -10H301L44 707H-4V715H245V707H189Q192 687 201 661L372 188L456 446L362 707H326V715H661V707H599L552 560L686 188L834 665Q838 681 838 687Q838 698 828.5 702.5Q819 707 794 707H759V715H912V707Q877 707 865.0 698.0Q853 689 843 658ZM518 658 546 576 588 707H506Q507 691 518 658Z" fill="#111111"/></g>
  </g>
</svg>
